<svg xmlns="http://www.w3.org/2000/svg" width="1600" height="1200" viewBox="0 0 1600 1200" role="img" aria-labelledby="title description">
  <title id="title">Abstract lilac botanical arrangement</title>
  <desc id="description">A temporary decorative fixture with restrained leaves and layered flower forms.</desc>
  <rect width="1600" height="1200" fill="#FBF7F1"/>
  <path d="M0 870c271-155 491-162 659-20 175 148 431 179 941 6v344H0Z" fill="#E9C9C9" opacity=".5"/>
  <ellipse cx="1180" cy="355" rx="270" ry="220" fill="#C9B6E4" opacity=".64"/>
  <g fill="none" stroke="#1F3326" stroke-linecap="round" stroke-linejoin="round">
    <path d="M566 1120c52-274 192-511 418-710" stroke-width="16"/>
    <path d="M755 742c-123-23-222-91-298-203 132-5 232 63 298 203Z" stroke-width="11"/>
    <path d="M840 604c132 6 246-41 343-142-132-32-250 16-343 142Z" stroke-width="11"/>
    <path d="M657 914c127-4 240-57 339-159-137-25-250 29-339 159Z" stroke-width="11"/>
    <path d="M1076 206c-53 19-86 61-93 120 56-4 99-37 123-93 19 55 58 88 117 98-3-59-34-101-96-126 49-35 71-83 63-141-58 8-99 40-126 97-32-51-78-75-140-70 12 59 55 97 152 115Z" stroke-width="12"/>
  </g>
</svg>
